<?xml version="1.0" encoding="UTF-8" standalone="no"?>
<svg
  xmlns:dc="http://purl.org/dc/elements/1.1/"
  xmlns:cc="http://creativecommons.org/ns#"
  xmlns:rdf="http://www.w3.org/1999/02/22-rdf-syntax-ns#"
  xmlns:svg="http://www.w3.org/2000/svg"
  xmlns="http://www.w3.org/2000/svg"
  xml:space="preserve"
  enable-background="new 0 0 465 269"
  viewBox="0 0 435 270"
  height="270"
  width="435"
  y="0px"
  x="0px"
  id="Layer_1"
  version="1.1">
  <defs
    id="defs6" />
  <g
    transform="matrix(0.99930724,0,0,1.0023362,-14.838933,-0.00468326)"
    id="g4184">
    <path
      id="path4148"
      d="m 68.549255,242.21124 c 0,0 -10.097273,-7.34858 -13.855768,-12.22944 -4.024958,-5.22689 -8.8704,-17.69187 -8.8704,-17.69187 l -8.8704,-17.69186 -3.546534,-21.10954 -3.546534,-21.10953 2.055175,-24.1986 c 2.007208,-23.63382 2.206961,-24.77042 8.558553,-48.698603 3.576857,-13.475 6.890976,-25.43213 7.364707,-26.57139 0.73964,-1.77874 7.878646,-20.65039 17.019201,-24.70855 18.300776,-8.125051 32.318006,2.89965 59.547765,7.90427 l 25,4.59481 41,-0.68373 41,-0.68374 47.71225,-5.92995 c 56.20703,-6.98572 112.62409,-15.29261 118.3393,-17.42435 3.624,-1.35174 4.52783,-1.34893 8.56485,0.0266 4.221,1.43824 4.75076,2.03776 8.1798,9.25692 2.01658,4.2455 3.93259,9.74408 4.25779,12.21908 0.53717,4.08814 0.31007,4.76882 -2.48135,7.43709 -2.64038,2.52391 -4.19938,6.56292 -2.53319,6.56292 0.2967,0 2.87952,-1.5759 5.73961,-3.50199 l 5.20015,-3.50199 4.63946,9.25199 4.63945,9.25199 0.73862,32.17977 0.73862,32.179773 -4.36768,1.1196 c -2.40222,0.61578 -4.97791,1.32658 -5.72375,1.57955 -2.00537,0.68017 -0.52643,5.57128 2.3338,7.71826 7.25597,5.44658 6.87794,4.5618 5.0172,11.7426 -1.3382,5.1643 -2.75642,7.69551 -7.05511,12.59178 -5.21781,5.94317 -5.6366,6.19245 -13.87383,8.25841 -4.67149,1.17164 -10.9849,2.13026 -14.0298,2.13026 l -5.53619,0 0,4.91102 c 0,7.53623 3.37687,15.2986 7.65846,17.60439 2.68318,1.44498 4.45149,3.73658 7.38405,9.56915 0,0 4.81316,4.97268 3.85598,7.66915 -1.1248,3.16867 -9.19924,4.13817 -9.19924,4.13817 0,0 -5.9113,3.4346 -9.19925,4.13818 -4.42686,0.94729 -13.58123,-0.015 -13.58123,-0.015 0,0 -9.55754,2.05971 -13.58122,-0.015 -2.5758,-1.32815 -5.04993,-7.07721 -5.04993,-7.07721 -4.04433,-5.66791 -7.58667,-8.94223 -17.78896,-16.44305 -15.21454,-11.18588 -14.82805,-11.09031 -43.45307,-10.74519 l -19.4544,0.23455 -53.18093,14.56012 -53.18093,14.56011 -35.34828,16.46608 c -29.73595,13.85166 -34.65742,24.57802 -53.881048,21.98432 -6.39943,-0.86343 -7.271784,-4.67522 -15.355767,-11.81035 z m 30.126716,-16.49589 6.270939,-5.73355 3.99462,-42 3.99461,-42 -8.0093,-35.41041 c -4.40512,-19.475733 -8.147049,-35.548163 -8.315409,-35.716513 -0.16835,-0.16836 -2.91161,-1.45839 -6.09612,-2.86673 l -5.790027,-2.56062 -10.060821,9.27606 -10.06082,9.27606 0.648063,20.00108 c 0.356435,11.000593 0.66293,23.151073 0.681099,27.001073 0.02004,4.24664 0.358086,6.40999 0.859427,5.5 1.325513,-2.40596 8.879553,-30.591533 11.104047,-41.431333 1.120934,-5.46223 2.143966,-10.00888 2.273403,-10.10366 0.129437,-0.0948 2.312071,-1.37033 4.850298,-2.83455 l 4.614961,-2.66223 4.49425,5.26589 4.49426,5.26588 0.68046,12.5 0.68046,12.500003 -5.28967,-8.21224 c -2.90932,-4.516733 -5.73968,-8.911253 -6.28968,-9.765603 -0.87848,-1.36459 -1.33804,-1.27804 -3.781711,0.71224 -2.164189,1.76265 -3.52475,4.74506 -6.128831,13.434653 l -3.347119,11.16905 -0.707621,31.83095 c -0.673765,30.30805 -0.605367,32.28391 1.429629,41.29841 1.175487,5.20711 2.236716,9.56693 2.358285,9.6885 0.12157,0.12157 2.557461,-1.5995 5.41309,-3.8246 4.640558,-3.61592 5.571388,-5.02465 8.763278,-13.26248 l 3.57123,-9.21683 -1.58702,-18.8946 c -0.87287,-10.39203 -1.67709,-18.98467 -1.78717,-19.09474 -0.11008,-0.11008 -1.43672,-0.5105 -2.94809,-0.88983 l -2.74795,-0.6897 0,16.57323 c 0,15.48102 -0.13018,16.64289 -1.975418,17.63043 -1.699803,0.90971 -2.083491,0.67045 -2.75,-1.71481 -0.891602,-3.19082 -0.76715,-24.55799 0.239155,-41.06039 l 0.688356,-11.28837 3.148957,-1.33159 c 1.73192,-0.73237 3.4304,-1.05261 3.77439,-0.71164 0.34399,0.34098 2.24604,5.56996 4.22677,11.61996 3.10991,9.49896 3.74533,13.1151 4.65655,26.5 l 1.05521,15.5 -4.03806,17.5 c -2.22093,9.625 -4.42489,18.40102 -4.89767,19.50228 -0.52825,1.23043 -3.22901,2.85479 -7.006152,4.21383 l -6.146531,2.21155 -7.932053,-15.84078 -7.932053,-15.84079 -2.555725,-26.64924 c -1.405649,-14.65708 -2.555725,-26.89042 -2.555725,-27.18518 0,-0.29477 -2.025,0.9183 -4.5,2.69571 -2.475,1.77741 -4.497879,3.26788 -4.495286,3.31214 0.18813,3.21197 13.135415,75.9808 13.682594,76.90156 0.446981,0.75215 4.82951,6.83761 9.738954,13.52324 l 8.926262,12.15568 6.073735,-0.0164 c 5.98812,-0.0162 6.16215,-0.0973 12.34469,-5.75 z M 393.22688,213.8878 c 4.4957,-1.53184 4.67814,-1.74567 4.67814,-5.48316 0,-3.64524 -0.30348,-4.04293 -4.8391,-6.34131 -2.66151,-1.34868 -8.38107,-3.35952 -12.71014,-4.46853 -7.831,-2.00611 -7.88721,-2.00638 -11.04924,-0.0521 -2.56749,1.5868 -3.31014,2.84414 -3.86487,6.54334 -0.37768,2.5185 -0.54043,4.70902 -0.36167,4.8678 0.17876,0.15879 3.02502,1.6709 6.32502,3.36025 7.01334,3.59031 14.35062,4.11945 21.82186,1.57375 z"
      style="fill:#b87956" />
    <path
      style="fill:#a46644;stroke:#a46644;stroke-opacity:1"
      d="m 71.331283,219.32612 c -4.909444,-6.68563 -9.291973,-12.77109 -9.738954,-13.52324 -0.547179,-0.92076 -13.494464,-73.68959 -13.682594,-76.90156 -0.0026,-0.0443 2.020286,-1.53473 4.495286,-3.31214 2.475,-1.77741 4.5,-2.99048 4.5,-2.69571 0,0.29476 1.150076,12.5281 2.555725,27.18518 l 2.555725,26.64924 7.932053,15.84079 7.932053,15.84078 6.14653,-2.21155 c 3.777144,-1.35904 6.477904,-2.9834 7.006154,-4.21383 0.47278,-1.10126 2.67674,-9.87728 4.89767,-19.50228 l 4.03806,-17.5 -1.05521,-15.5 c -0.91122,-13.3849 -1.54664,-17.00104 -4.65655,-26.5 -1.98073,-6.05 -3.88278,-11.27898 -4.22677,-11.61996 -0.34399,-0.34097 -2.04247,-0.0207 -3.77439,0.71164 l -3.148958,1.33159 -0.688356,11.28837 c -1.006305,16.5024 -1.130757,37.86957 -0.239155,41.06039 0.666509,2.38526 1.050197,2.62452 2.750007,1.71481 1.845232,-0.98754 1.975412,-2.14941 1.975412,-17.63043 l 0,-16.57323 2.74795,0.6897 c 1.51137,0.37933 2.83801,0.77975 2.94809,0.88983 0.11008,0.11007 0.9143,8.70271 1.78717,19.09474 l 1.58702,18.8946 -3.57123,9.21683 c -3.19189,8.23783 -4.12272,9.64656 -8.763279,13.26248 -2.855629,2.2251 -5.29152,3.94617 -5.41309,3.8246 -0.121569,-0.12157 -1.182798,-4.48139 -2.358285,-9.6885 -2.034996,-9.0145 -2.103394,-10.99036 -1.429629,-41.29841 l 0.707621,-31.83095 3.347119,-11.16905 c 2.604081,-8.689593 3.964642,-11.672003 6.128831,-13.434653 2.443672,-1.99028 2.903242,-2.07683 3.781712,-0.71224 0.55,0.85435 3.38036,5.24887 6.28968,9.765603 l 5.28967,8.21224 -0.68046,-12.500003 -0.68046,-12.5 -4.49425,-5.26589 -4.49426,-5.26588 -4.614962,2.66223 c -2.538227,1.46422 -4.720861,2.73977 -4.850298,2.83455 -0.129437,0.0948 -1.152469,4.64143 -2.273403,10.10366 -2.224494,10.8398 -9.778534,39.025373 -11.104047,41.431333 -0.501341,0.90999 -0.839386,-1.25336 -0.859427,-5.5 -0.01817,-3.85 -0.324664,-16.00048 -0.681099,-27.001073 l -0.648063,-20.00108 10.06082,-9.27606 10.060827,-9.27606 5.790022,2.56062 c 3.18451,1.40835 5.92777,2.69837 6.09613,2.86673 0.16835,0.16835 3.910279,16.24078 8.315399,35.716513 l 8.0093,35.41041 -3.99461,42 -3.99462,42 -6.270939,5.73355 c -6.18254,5.65273 -6.35657,5.73379 -12.34469,5.75 l -6.073736,0.0164 -8.926262,-12.15568 z"
      id="path4154" />
    <path
      style="fill:#a46644;stroke:#a46644;stroke-opacity:1"
      d="m 371.04861,212.14908 c -3.3,-1.68935 -6.14626,-3.20146 -6.32502,-3.36025 -0.17876,-0.15878 -0.016,-2.3493 0.36167,-4.8678 0.55473,-3.6992 1.29738,-4.95654 3.86487,-6.54334 3.16203,-1.95424 3.21824,-1.95397 11.04924,0.0521 4.32907,1.10901 10.04863,3.11985 12.71014,4.46853 4.53562,2.29838 4.8391,2.69607 4.8391,6.34131 0,3.73749 -0.18244,3.95132 -4.67814,5.48316 -7.47124,2.5457 -14.80852,2.01656 -21.82186,-1.57375 z"
      id="path4146" />
  </g>
</svg>